<?xml version="1.0" standalone="no"?>
<!DOCTYPE svg PUBLIC "-//W3C//DTD SVG 20010904//EN"
 "http://www.w3.org/TR/2001/REC-SVG-20010904/DTD/svg10.dtd">
<svg version="1.0" xmlns="http://www.w3.org/2000/svg"
 width="200.000000pt" height="200.000000pt" viewBox="0 0 200.000000 200.000000"
 preserveAspectRatio="xMidYMid meet">

<g transform="translate(0.000000,200.000000) scale(0.100000,-0.100000)"
fill="#000000" stroke="none">
<path d="M896 1785 c-33 -9 -94 -32 -135 -52 -94 -44 -212 -158 -253 -244
l-27 -56 -59 -7 c-150 -17 -296 -139 -347 -291 -25 -74 -22 -201 6 -280 54
-155 198 -267 361 -282 48 -5 59 -3 64 11 10 26 -9 38 -77 48 -121 16 -233
101 -287 216 -23 49 -27 70 -27 152 0 82 4 103 27 152 57 123 165 201 302 220
l74 11 33 64 c39 77 114 157 196 211 252 162 595 91 762 -158 55 -83 81 -158
95 -275 l11 -100 53 -7 c136 -20 216 -110 217 -243 0 -79 -18 -127 -69 -177
-52 -52 -99 -68 -208 -68 -101 0 -134 -13 -122 -45 9 -22 194 -21 258 1 64 22
148 100 176 165 29 69 30 179 2 242 -40 89 -131 162 -222 177 l-35 5 -6 65
c-21 242 -180 446 -409 527 -94 33 -260 41 -354 18z"/>
<path d="M686 1235 c-8 -9 -18 -32 -22 -53 -14 -78 -63 -141 -144 -185 l-33
-18 6 -72 c16 -208 153 -463 321 -598 66 -53 164 -109 193 -109 58 0 250 155
328 265 87 121 157 302 171 441 6 57 5 64 -18 86 -13 12 -38 30 -55 40 -41 21
-91 91 -99 137 -3 20 -13 46 -20 59 l-14 22 -300 0 c-255 0 -301 -2 -314 -15z
m527 -189 c17 -42 108 -146 127 -146 18 0 -24 -140 -72 -240 -43 -88 -63 -117
-127 -181 -42 -42 -91 -84 -109 -93 -33 -17 -34 -17 -83 14 -27 18 -79 64
-115 103 -74 80 -142 208 -169 318 l-17 66 54 51 c30 28 65 74 78 102 l23 50
196 0 196 0 18 -44z"/>
<path d="M1069 808 c-45 -68 -83 -125 -85 -127 -2 -2 -26 17 -54 43 -52 49
-73 54 -78 20 -2 -14 18 -40 62 -82 35 -34 69 -62 75 -62 17 0 203 286 199
306 -2 11 -11 20 -20 22 -12 2 -41 -33 -99 -120z"/>
</g>
</svg>
